<svg width="564" height="435" viewBox="0 0 564 435" fill="none" xmlns="http://www.w3.org/2000/svg">
<g clip-path="url(#clip0_1_223)">
<g clip-path="url(#clip1_1_223)">
<path d="M131.804 378.101C131.458 378.101 131.109 378.101 130.764 378.101C129.56 377.939 128.36 377.737 127.152 377.633C125.994 377.534 124.979 377.087 124.176 376.332C122.145 374.419 121.36 371.987 121.374 369.263C121.381 368.125 121.374 366.992 121.374 365.786C120.418 365.797 120.229 365.206 120.188 364.45C120.146 363.688 120.041 362.932 119.964 362.173C119.968 362.073 119.975 361.977 119.978 361.877C119.982 359.655 119.989 357.436 119.992 355.214C120.163 353.806 120.453 352.401 120.484 350.992C120.61 345.246 120.617 339.496 120.746 333.749C120.791 331.767 121.028 329.789 121.252 327.818C121.622 324.547 122.061 321.287 122.456 318.021C122.588 316.922 122.668 315.816 122.78 314.717C123.063 311.979 123.377 309.245 123.625 306.507C123.865 303.849 124.04 301.187 124.242 298.528C124.445 295.839 124.654 293.149 124.842 290.46C124.944 289.013 124.954 287.561 125.097 286.121C125.327 283.81 125.652 281.505 125.9 279.197C126.123 277.108 126.287 275.016 126.496 272.928C126.748 270.445 127.1 267.964 127.264 265.474C127.515 261.648 127.644 257.811 127.819 253.981C127.99 250.182 128.203 246.383 128.307 242.581C128.419 238.493 128.426 234.406 128.482 230.318C128.601 228.735 128.744 227.154 128.834 225.567C128.894 224.575 128.786 223.565 128.911 222.583C129.351 219.141 129.599 215.692 129.417 212.223C129.372 211.343 129.368 210.458 129.442 209.579C129.703 206.353 129.979 203.131 130.293 199.909C130.621 196.519 131.001 193.132 131.354 189.745C131.664 186.75 131.94 183.754 132.275 180.763C132.624 177.662 132.973 174.56 133.426 171.471C133.985 167.655 134.669 163.853 135.265 160.043C135.489 158.618 135.635 157.182 135.813 155.75C139.407 156.423 142.994 157.148 146.599 157.756C150.507 158.416 154.44 158.934 158.352 159.591C160.735 159.988 163.097 160.514 165.466 161.002C166.251 161.163 167.016 161.435 167.805 161.586C168.907 161.799 170.034 161.889 171.123 162.142C172.132 162.376 173.081 162.888 174.092 163.049C176.137 163.379 178.203 163.701 180.269 163.767C185.605 163.942 190.946 163.626 196.278 164.275C199.276 164.64 202.315 164.653 205.334 164.849C205.529 164.862 205.833 165.062 205.871 165.224C206.039 165.91 206.122 166.618 206.241 167.319C206.967 171.623 207.668 175.933 208.436 180.23C208.792 182.226 209.35 184.187 209.689 186.187C209.981 187.918 210.044 189.684 210.289 191.425C210.717 194.513 211.199 197.594 211.681 200.671C211.821 201.565 212.023 202.447 212.198 203.334C212.187 203.828 212.177 204.323 212.166 204.817C212.233 204.951 212.303 205.089 212.368 205.223C212.407 205.377 212.442 205.528 212.48 205.683C212.56 206.14 212.641 206.593 212.72 207.051C212.741 207.198 212.762 207.349 212.783 207.496C212.832 207.703 212.881 207.912 212.93 208.118C212.948 208.218 212.962 208.321 212.979 208.42C213.018 208.607 213.056 208.792 213.095 208.974C213.118 209.245 213.143 209.513 213.167 209.784C213.251 210.368 213.339 210.955 213.422 211.539C213.447 211.694 213.475 211.852 213.499 212.007C213.533 212.192 213.572 212.378 213.607 212.563C213.628 212.776 213.652 212.989 213.673 213.206C213.715 213.504 213.754 213.803 213.796 214.098C213.862 214.346 213.924 214.597 213.991 214.843C214.033 215.548 214.071 216.255 214.113 216.96C214.124 217.118 214.138 217.272 214.148 217.43C214.18 217.564 214.211 217.699 214.243 217.832C214.292 218.234 214.339 218.636 214.388 219.038C214.423 219.488 214.458 219.938 214.49 220.388C214.514 220.676 214.539 220.968 214.56 221.256C214.598 221.535 214.633 221.814 214.672 222.095C214.7 222.216 214.724 222.332 214.751 222.452C214.769 222.566 214.783 222.675 214.8 222.789C214.842 222.961 214.884 223.132 214.923 223.308C214.94 223.42 214.958 223.531 214.975 223.644C215.129 224.451 215.306 225.255 215.429 226.069C216.053 230.311 216.675 234.55 217.267 238.795C217.711 241.976 218.112 245.161 218.534 248.344C218.928 251.329 219.358 254.308 219.703 257.299C219.906 259.047 219.902 260.816 220.104 262.565C220.625 267.023 221.515 271.447 221.368 275.971C221.35 276.483 221.343 276.998 221.41 277.506C221.79 280.488 222.226 283.466 222.568 286.454C222.746 288.003 222.732 289.573 222.875 291.126C223.011 292.624 223.283 294.107 223.416 295.605C223.535 296.962 223.517 298.332 223.615 299.692C223.768 301.843 223.964 303.993 224.138 306.14C224.191 306.762 224.236 307.387 224.292 308.008C224.469 310.011 224.651 312.014 224.832 314.02C224.86 314.329 224.874 314.641 224.913 314.951C225.112 316.582 225.405 318.21 225.496 319.849C225.68 323.077 225.345 326.316 226.002 329.545C226.584 332.406 226.106 335.361 226.71 338.277C227.341 341.32 227.387 344.477 227.785 347.571C228.074 349.811 228.51 352.033 228.898 354.259C229.198 355.987 229.495 357.715 229.854 359.429C229.924 359.755 230.22 360.184 230.513 360.288C232.572 360.992 234.708 361.496 236.718 362.307C239.213 363.31 241.607 364.547 244.046 365.68C244.722 365.996 244.81 366.498 244.635 367.171C244.116 369.153 242.852 370.719 241.698 372.341C241.027 373.282 240.008 373.715 238.896 373.866C234.188 374.512 229.481 375.167 224.76 375.73C221.326 376.139 217.879 376.421 214.434 376.74C212.944 376.878 211.448 376.985 209.953 377.077C206.447 377.293 202.94 377.472 199.433 377.706C198.229 377.785 197.032 377.977 195.828 378.118C195.483 378.118 195.134 378.118 194.789 378.118C193.641 377.957 192.496 377.702 191.344 377.661C190.151 377.62 189.167 377.125 188.302 376.465C186.397 375.013 185.573 372.825 185.486 370.64C185.328 366.755 184.99 362.887 184.781 359.013C184.61 355.846 183.979 352.765 183.643 349.635C183.511 348.396 183.245 347.173 183.075 345.936C182.726 343.411 182.405 340.883 182.055 338.359C181.787 336.415 181.414 334.484 181.235 332.533C181.033 330.329 181.026 328.109 180.876 325.9C180.74 323.864 180.44 321.837 180.378 319.801C180.283 316.798 180.412 313.786 180.308 310.784C180.178 307.039 179.91 303.303 179.696 299.562C179.626 298.342 179.551 297.119 179.467 295.901C179.316 293.726 179.149 291.552 179.013 289.374C178.922 287.904 178.887 286.427 178.796 284.957C178.734 283.909 178.643 282.865 178.531 281.824C178.336 280.021 178.095 278.221 177.9 276.418C177.68 274.387 177.509 272.351 177.285 270.317C177.055 268.232 176.772 266.155 176.546 264.069C176.214 261.026 175.89 257.986 175.607 254.939C175.398 252.686 175.265 250.423 175.098 248.166C175.073 247.826 175.031 247.486 175.007 247.145C174.836 244.885 174.669 242.626 174.501 240.365C174.466 239.885 174.441 239.4 174.399 238.919C174.222 236.917 173.991 234.921 173.873 232.915C173.709 230.081 173.625 227.241 173.507 224.403C173.503 224.318 173.486 224.235 173.479 224.149C173.227 221.927 173.004 219.697 172.721 217.479C172.522 215.905 172.261 214.339 171.999 212.773C171.646 210.671 171.273 208.576 170.9 206.476C170.691 205.308 170.456 204.144 170.234 202.976C169.818 206.535 169.521 210.069 169.34 213.608C169.141 217.441 169.04 221.277 168.918 225.111C168.844 227.436 168.816 229.765 168.76 232.094C168.697 234.708 168.583 237.322 168.569 239.935C168.541 245.424 168.464 250.907 167.916 256.379C167.581 259.714 167.469 263.073 167.215 266.418C167.127 267.548 166.946 268.676 166.74 269.795C166.325 272.059 165.704 274.295 165.459 276.576C165.082 280.076 164.954 283.604 164.72 287.121C164.259 294.049 163.826 300.978 163.321 307.902C163.139 310.395 162.92 312.899 162.469 315.356C161.698 319.56 161.08 323.767 160.955 328.047C160.899 330.005 160.703 331.966 160.435 333.907C159.737 338.974 159.088 344.054 158.18 349.086C157.574 352.452 157.964 355.771 158.059 359.274C159.426 359.366 160.822 359.342 162.173 359.576C164.598 359.999 167.006 360.527 169.4 361.104C170.991 361.489 172.209 363.289 171.765 364.509C171.168 366.148 170.251 367.583 168.59 368.38C167.686 368.816 166.771 369.262 165.813 369.555C163.004 370.414 160.174 371.207 157.351 372.014C154.642 372.79 151.931 373.563 149.217 374.323C146.362 375.119 143.518 375.957 140.639 376.664C138.86 377.101 137.028 377.335 135.213 377.633C134.093 377.802 132.948 377.943 131.804 378.101Z" fill="#1E1928"/>
<path d="M40 192.859C40.0628 192.533 40.1954 192.207 40.1745 191.887C40.0244 189.659 40.5409 187.501 40.8375 185.32C40.9631 184.396 40.8061 183.438 40.9107 182.511C41.1027 180.806 41.3958 179.113 41.6401 177.413C41.6784 177.135 41.6714 176.847 41.6994 176.565C41.9192 174.459 42.1565 172.357 42.3589 170.248C42.4217 169.599 42.3589 168.939 42.4182 168.29C42.5927 166.407 42.816 164.529 42.994 162.647C43.0672 161.86 43.0428 161.063 43.1266 160.273C43.2696 158.871 43.4615 157.477 43.629 156.079C43.7547 155.014 43.8105 153.94 44.0094 152.888C44.3374 151.171 44.7352 149.467 45.1434 147.766C45.4715 146.396 45.8169 145.025 46.2356 143.679C47.293 140.272 48.3223 136.85 50.1368 133.735C50.894 132.437 51.6548 131.135 52.4958 129.891C53.7345 128.064 54.9767 126.233 56.3481 124.506C57.8311 122.634 59.4293 120.851 61.0344 119.075C62.5768 117.368 64.1645 115.695 65.7836 114.057C66.9595 112.865 68.4042 111.893 69.4056 110.583C71.8273 107.428 75.39 105.816 78.5969 103.749C80.837 102.306 83.2203 101.035 85.663 99.9491C87.6938 99.0496 89.9062 98.5378 92.0312 97.8405C92.2441 97.7718 92.4255 97.6 92.621 97.4763C93.5038 98.3901 94.3831 99.3071 95.3008 100.259C95.1682 100.42 95.0322 100.599 94.8822 100.764C93.8841 101.859 92.8164 102.904 91.8917 104.061C90.1086 106.291 88.4929 108.657 86.647 110.831C83.4646 114.586 81.5385 118.838 80.9173 123.678C80.8964 123.846 80.851 124.017 80.8719 124.18C81.1581 126.313 81.6641 128.277 83.3425 129.912C85.2094 131.733 87.1774 132.769 89.8678 132.416C94.1773 131.846 97.0909 129.321 99.1253 125.824C101.195 122.269 101.69 118.251 101.327 114.242C101.058 111.288 100.245 108.382 99.694 105.452C99.4184 103.982 99.1811 102.505 98.9368 101.065C102.412 100.688 105.644 99.9939 108.344 97.8164C108.69 97.9367 109.028 98.1221 109.384 98.1633C111.094 98.3729 112.629 98.9362 114.112 99.8397C115.585 100.739 117.288 101.272 118.813 102.103C120.708 103.137 122.564 104.257 124.357 105.459C125.069 105.936 125.568 106.73 126.162 107.376C125.415 108.275 124.794 109.327 123.9 110.051C120.798 112.569 117.916 115.296 115.177 118.192C113.865 119.58 112.336 120.775 111.049 122.184C108.997 124.423 106.519 126.127 104.087 127.899C103.114 128.607 102.192 129.404 101.149 129.998C98.3855 131.578 95.58 133.09 92.7675 134.583C90.5099 135.786 88.2173 136.926 85.9387 138.09C83.2099 139.489 80.4706 140.87 77.7524 142.284C76.6322 142.868 75.5505 143.528 74.4514 144.153C72.1518 145.455 69.8418 146.74 67.5562 148.069C67.2073 148.272 66.9699 148.657 66.6804 148.958C65.0089 149.491 63.2118 149.793 61.6939 150.604C58.1277 152.507 56.7563 156.099 55.3082 159.528C54.387 161.709 54.7324 164.099 54.6173 166.395C54.4882 169.018 54.5964 171.652 54.6103 174.284C54.6138 174.792 54.6627 175.301 54.7011 175.809C54.7743 176.729 54.6487 177.743 55.0047 178.543C55.3117 179.227 56.0969 179.848 56.8227 180.158C57.517 180.453 58.4068 179.91 58.9199 178.928C59.4851 177.839 60.2213 176.733 61.1635 175.96C62.4581 174.896 63.9726 174.071 65.4626 173.267C68.1459 171.815 71.091 170.836 73.4743 168.854C73.6976 169.015 73.9733 169.138 74.1408 169.344C74.9713 170.368 75.9448 170.481 77.1522 170.021C79.0574 169.297 81.0116 168.703 82.9272 168.001C86.5214 166.686 90.0876 165.298 93.6922 164.024C94.6763 163.677 95.6289 162.808 96.8257 163.471C96.8886 163.505 97.0421 163.409 97.1433 163.361C100.622 161.644 104.178 160.053 107.556 158.164C110.204 156.683 112.647 154.843 115.166 153.139C116.733 152.077 118.3 151.01 119.818 149.882C123.063 147.471 126.36 145.122 129.473 142.552C131.476 140.897 133.179 138.894 135.025 137.053C135.339 136.741 135.698 136.472 136.211 136.033C136.037 137.891 135.946 139.527 135.712 141.14C135.203 144.682 134.568 148.203 134.878 151.809C134.986 153.094 134.686 154.444 135.751 155.499C135.803 155.55 135.799 155.66 135.82 155.742C135.639 157.175 135.496 158.611 135.273 160.036C134.672 163.849 133.992 167.648 133.434 171.463C132.98 174.552 132.631 177.654 132.282 180.756C131.944 183.747 131.671 186.742 131.361 189.737C131.008 193.128 130.632 196.511 130.3 199.901C129.986 203.124 129.71 206.345 129.449 209.571C129.379 210.446 129.379 211.336 129.424 212.216C129.606 215.688 129.358 219.133 128.918 222.575C128.793 223.558 128.897 224.563 128.841 225.56C128.751 227.143 128.608 228.727 128.489 230.311C126.587 230.355 124.682 230.513 122.791 230.42C118.541 230.214 114.297 229.884 110.047 229.607C109.416 229.565 108.784 229.548 108.153 229.493C105.316 229.252 102.479 229.002 99.6417 228.755C99.223 228.71 98.8077 228.637 98.389 228.621C97.5585 228.59 96.7315 228.59 95.901 228.576C95.3951 228.415 94.8996 228.16 94.3831 228.108C91.288 227.789 88.1788 227.573 85.0872 227.205C82.4875 226.896 79.9158 226.339 77.3127 226.044C72.4763 225.499 67.626 225.069 62.7826 224.574C60.3156 224.32 57.8555 224.024 55.392 223.75C55.5141 222.472 55.6606 221.194 55.7409 219.913C55.7759 219.367 55.6746 218.81 55.6362 218.258C55.5316 216.777 55.8107 215.252 55.1093 213.837C55.0466 213.713 55.0186 213.562 55.0186 213.421C54.9942 212.285 54.9977 211.147 54.9558 210.01C54.9209 209.1 54.7778 208.19 54.7778 207.279C54.7743 205.638 54.8407 203.996 54.8721 202.354C54.8929 201.265 54.9034 200.176 54.9139 199.09C54.9244 197.929 54.9453 196.768 54.9348 195.607C54.9313 195.216 54.7673 194.81 54.8232 194.433C55.0815 192.76 55.3955 191.095 55.6886 189.425C55.7025 189.343 55.6886 189.257 55.6851 189.174C55.6119 187.78 55.5316 186.382 55.4582 184.987C55.3955 183.757 55.3536 182.528 55.2524 181.302C55.2385 181.113 54.9697 180.941 54.8197 180.763C54.6418 180.951 54.3312 181.13 54.3103 181.336C54.1881 182.501 54.0765 183.668 54.0695 184.836C54.059 186.869 54.2195 188.879 53.745 190.919C53.3611 192.561 53.3611 194.316 53.403 196.016C53.4483 197.905 53.0436 199.795 53.4728 201.694C53.6367 202.422 53.3856 203.237 53.3576 204.016C53.2948 205.765 53.239 207.513 53.2076 209.261C53.1902 210.189 53.1762 211.127 53.2704 212.047C53.3402 212.723 53.6996 213.376 53.7345 214.049C53.8357 216.131 53.8113 218.22 53.9055 220.301C53.9613 221.531 54.1463 222.757 54.2719 223.983C52.7714 223.908 51.2291 223.747 50.1229 222.692C49.0377 221.661 48.0676 220.466 47.2685 219.205C46.445 217.904 45.8867 216.44 45.2132 215.045C45.1644 215.059 45.1155 215.07 45.0667 215.083C45.0981 215.51 45.1295 215.936 45.1609 216.358C45.0946 216.372 45.0318 216.385 44.9655 216.399C44.3549 215.619 43.7442 214.839 43.1335 214.06C42.973 213.765 42.809 213.469 42.6555 213.17C42.139 212.167 41.5109 211.202 41.1411 210.148C40.7537 209.038 40.6246 207.842 40.3559 206.692C40.2896 206.404 40.1256 206.135 40.0035 205.858C40 201.519 40 197.188 40 192.859Z" fill="#A0B4BB"/>
<path d="M66.6742 148.959C66.9639 148.657 67.2011 148.272 67.5501 148.07C69.8357 146.744 72.1456 145.455 74.4453 144.154C75.5479 143.532 76.6262 142.869 77.7463 142.285C80.4646 140.87 83.2038 139.486 85.9325 138.091C88.2111 136.927 90.5037 135.786 92.7613 134.584C95.5739 133.087 98.3759 131.576 101.143 129.999C102.183 129.405 103.108 128.608 104.081 127.899C106.513 126.128 108.994 124.423 111.043 122.184C112.33 120.776 113.859 119.58 115.171 118.192C117.91 115.297 120.789 112.57 123.894 110.052C124.788 109.327 125.409 108.276 126.155 107.376C127.275 106.153 128.361 104.9 129.519 103.715C132.07 101.097 134.544 98.4077 137.538 96.2335C139.223 95.0072 140.749 93.568 142.361 92.2387C142.78 91.8952 143.23 91.5792 143.697 91.2976C146.956 89.3225 150.101 87.1173 153.52 85.4617C157.114 83.7236 160.813 82.0165 164.962 81.8688C165.416 81.8344 165.872 81.7588 166.326 81.7692C167.934 81.8035 169.543 81.8825 171.151 81.9169C172.729 81.9478 174.303 81.9444 175.88 81.9444C176.04 81.9444 176.324 81.9066 176.341 81.8378C176.512 81.1612 176.93 81.4978 177.283 81.594C177.726 81.7143 178.162 81.855 178.602 81.9856C181.379 83.3904 184.335 84.3281 187.266 85.3621C189.133 86.0216 190.889 87.0761 192.559 88.1547C194.092 89.1405 195.561 90.2843 196.855 91.5552C198.373 93.0459 199.835 94.6054 200.795 96.5769C202.274 99.6168 203.9 102.585 205.474 105.58C207.341 109.121 208.911 112.786 210.031 116.619C210.788 119.209 211.371 121.851 211.989 124.479C212.956 128.57 213.86 132.678 214.84 136.765C215.332 138.809 215.994 140.815 216.476 142.858C217.028 145.204 217.468 147.575 217.949 149.938C218.337 151.827 218.727 153.717 219.094 155.609C219.826 159.401 220.346 163.211 220.769 167.057C221.177 170.788 221.267 174.501 221.125 178.204C220.988 181.765 220.443 185.328 219.861 188.855C219.436 191.425 218.685 193.943 218.025 196.471C217.841 197.178 217.464 197.834 217.177 198.514C215.754 200.355 214.233 202.097 212.202 203.334C212.027 202.447 211.822 201.565 211.685 200.671C211.207 197.59 210.725 194.509 210.294 191.425C210.049 189.683 209.986 187.918 209.693 186.187C209.355 184.187 208.796 182.226 208.44 180.23C207.672 175.933 206.971 171.623 206.246 167.319C206.127 166.618 206.043 165.914 205.875 165.224C205.837 165.062 205.53 164.859 205.338 164.848C202.319 164.653 199.281 164.64 196.283 164.275C190.951 163.626 185.609 163.942 180.273 163.767C178.208 163.698 176.142 163.379 174.097 163.049C173.085 162.885 172.132 162.376 171.127 162.142C170.039 161.888 168.908 161.799 167.809 161.586C167.021 161.435 166.257 161.163 165.471 161.002C163.101 160.511 160.739 159.988 158.356 159.59C154.448 158.938 150.511 158.418 146.603 157.756C142.999 157.144 139.412 156.423 135.818 155.75C135.797 155.668 135.8 155.557 135.748 155.506C134.68 154.448 134.984 153.102 134.876 151.816C134.568 148.21 135.2 144.689 135.71 141.148C135.943 139.534 136.031 137.899 136.208 136.041C135.696 136.48 135.336 136.748 135.022 137.06C133.176 138.898 131.473 140.905 129.47 142.56C126.361 145.129 123.06 147.482 119.815 149.89C118.297 151.017 116.73 152.085 115.164 153.147C112.644 154.85 110.202 156.691 107.553 158.172C104.172 160.061 100.62 161.651 97.1406 163.368C97.0394 163.42 96.8894 163.516 96.8231 163.478C95.6262 162.816 94.6736 163.681 93.6895 164.032C90.0815 165.309 86.5188 166.697 82.9246 168.009C81.0089 168.71 79.0548 169.304 77.1496 170.029C75.9423 170.489 74.9687 170.372 74.1381 169.352C73.9706 169.146 73.6985 169.022 73.4717 168.861C73.3845 168.717 73.3077 168.565 73.2065 168.435C72.4528 167.463 71.8072 166.47 71.4408 165.25C70.8895 163.41 70.073 161.648 69.4064 159.834C69.0854 158.958 68.8133 158.058 68.59 157.151C68.1258 155.283 67.7036 153.4 67.2674 151.525C67.065 150.666 66.8696 149.815 66.6742 148.959Z" fill="#7E4239"/>
<path d="M119.965 362.176C118.914 362.441 117.86 362.701 116.754 362.98C116.367 361.513 116.133 360.098 115.613 358.796C114.835 356.845 114.699 354.836 114.559 352.792C114.49 351.754 114.21 350.728 114.018 349.697C113.38 346.231 112.696 342.773 112.11 339.3C111.468 335.487 110.871 331.668 110.33 327.837C109.87 324.574 109.608 321.283 109.102 318.031C108.502 314.177 108.139 310.316 107.978 306.421C107.821 302.587 107.49 298.761 107.144 294.942C106.75 290.586 106.261 286.234 105.794 281.886C105.455 278.753 105.092 275.62 104.726 272.488C104.227 268.228 103.714 263.973 103.208 259.717C103.138 259.123 103.11 258.525 103.041 257.934C102.688 255.032 102.325 252.129 101.97 249.227C101.729 247.255 101.481 245.283 101.251 243.308C100.877 240.094 100.511 236.881 100.151 233.667C99.97 232.028 99.8095 230.389 99.6385 228.751C102.475 228.999 105.312 229.249 108.149 229.49C108.781 229.545 109.412 229.562 110.044 229.603C114.291 229.881 118.534 230.211 122.787 230.417C124.682 230.51 126.588 230.352 128.486 230.307C128.434 234.395 128.423 238.486 128.311 242.573C128.207 246.375 127.994 250.175 127.823 253.973C127.648 257.807 127.516 261.64 127.268 265.467C127.104 267.957 126.752 270.434 126.5 272.921C126.291 275.009 126.127 277.104 125.904 279.189C125.656 281.501 125.331 283.802 125.101 286.114C124.958 287.553 124.948 289.006 124.846 290.452C124.658 293.142 124.448 295.831 124.246 298.52C124.044 301.183 123.869 303.845 123.629 306.5C123.381 309.241 123.063 311.975 122.784 314.709C122.672 315.812 122.592 316.915 122.459 318.014C122.065 321.28 121.629 324.543 121.256 327.81C121.032 329.781 120.795 331.763 120.75 333.742C120.617 339.489 120.61 345.239 120.488 350.985C120.457 352.393 120.167 353.798 119.996 355.207C119.944 355.505 119.846 355.805 119.842 356.103C119.825 357.666 119.822 359.232 119.835 360.795C119.839 361.152 119.93 361.509 119.979 361.87C119.975 361.977 119.972 362.076 119.965 362.176Z" fill="#0E8D64"/>
<path d="M212.198 203.33C214.225 202.093 215.75 200.351 217.173 198.51C216.992 202.306 216.985 206.122 216.56 209.89C216.312 212.085 215.401 214.211 214.776 216.362C214.651 216.797 214.469 217.216 214.313 217.642C214.257 217.566 214.201 217.495 214.148 217.419C214.138 217.261 214.124 217.107 214.113 216.949C214.071 216.244 214.033 215.537 213.991 214.832C213.924 214.586 213.862 214.335 213.796 214.087C213.754 213.789 213.716 213.489 213.674 213.194C213.653 212.981 213.628 212.768 213.607 212.552C213.572 212.366 213.534 212.181 213.5 211.995C213.475 211.841 213.447 211.683 213.423 211.528C213.339 210.944 213.251 210.357 213.167 209.773C213.143 209.502 213.118 209.234 213.095 208.963C213.056 208.777 213.018 208.592 212.976 208.409C212.958 208.31 212.944 208.207 212.927 208.107C212.878 207.901 212.829 207.691 212.78 207.485C212.759 207.338 212.738 207.187 212.717 207.039C212.638 206.582 212.557 206.128 212.477 205.672C212.438 205.517 212.403 205.366 212.365 205.212C212.299 205.078 212.229 204.94 212.163 204.806C212.177 204.318 212.187 203.824 212.198 203.33Z" fill="#DFB995"/>
<path d="M119.981 361.88C119.933 361.523 119.842 361.166 119.838 360.805C119.824 359.242 119.828 357.676 119.845 356.113C119.849 355.815 119.947 355.515 119.999 355.217C119.992 357.435 119.985 359.658 119.981 361.88Z" fill="#0E8D64"/>
<path d="M213.99 214.839C214.032 215.544 214.07 216.251 214.112 216.956C214.074 216.251 214.032 215.544 213.99 214.839Z" fill="#7E4239"/>
<path d="M213.171 209.78C213.255 210.364 213.342 210.951 213.426 211.535C213.339 210.951 213.255 210.364 213.171 209.78Z" fill="#7E4239"/>
<path d="M214.389 219.03C214.424 219.481 214.459 219.93 214.491 220.38C214.459 219.93 214.424 219.481 214.389 219.03Z" fill="#7E4239"/>
<path d="M212.48 205.679C212.561 206.136 212.641 206.589 212.721 207.046C212.641 206.589 212.561 206.132 212.48 205.679Z" fill="#7E4239"/>
<path d="M213.676 213.198C213.718 213.496 213.757 213.796 213.799 214.091C213.757 213.796 213.718 213.496 213.676 213.198Z" fill="#7E4239"/>
<path d="M214.564 221.249C214.603 221.528 214.638 221.807 214.676 222.088C214.638 221.81 214.603 221.531 214.564 221.249Z" fill="#7E4239"/>
<path d="M212.784 207.489C212.833 207.695 212.882 207.904 212.931 208.111C212.882 207.904 212.833 207.698 212.784 207.489Z" fill="#7E4239"/>
<path d="M213.504 212.002C213.538 212.187 213.576 212.373 213.611 212.558C213.573 212.373 213.538 212.187 213.504 212.002Z" fill="#7E4239"/>
<path d="M212.978 208.413C213.017 208.598 213.055 208.785 213.097 208.967C213.059 208.785 213.02 208.598 212.978 208.413Z" fill="#7E4239"/>
<path d="M212.168 204.813C212.234 204.946 212.304 205.084 212.37 205.218C212.304 205.084 212.234 204.95 212.168 204.813Z" fill="#7E4239"/>
<path d="M214.751 222.445C214.768 222.559 214.782 222.668 214.8 222.782C214.786 222.668 214.768 222.555 214.751 222.445Z" fill="#7E4239"/>
<path d="M214.927 223.296C214.945 223.409 214.962 223.519 214.98 223.632C214.959 223.523 214.941 223.409 214.927 223.296Z" fill="#7E4239"/>
<path d="M214.148 217.423C214.204 217.498 214.26 217.57 214.312 217.646C214.288 217.705 214.264 217.766 214.239 217.824C214.211 217.691 214.18 217.556 214.148 217.423Z" fill="#7E4239"/>
<path d="M108.342 97.8161C105.641 99.9939 102.41 100.687 98.9342 101.065C99.182 102.505 99.4159 103.981 99.6915 105.452C100.243 108.382 101.059 111.288 101.325 114.242C101.687 118.25 101.192 122.269 99.1227 125.824C97.0848 129.321 94.1747 131.845 89.8652 132.416C87.1749 132.773 85.2068 131.733 83.3399 129.912C81.6615 128.273 81.1555 126.312 80.8694 124.179C80.8485 124.017 80.8903 123.842 80.9147 123.677C81.5359 118.838 83.462 114.585 86.6445 110.831C88.4904 108.653 90.106 106.29 91.8891 104.061C92.8138 102.907 93.8815 101.862 94.8796 100.763C95.0296 100.599 95.1657 100.42 95.2982 100.259C94.3805 99.3068 93.5012 98.3932 92.6184 97.476C90.12 94.3194 89.0452 90.7471 89.5686 86.7832C89.8408 84.7051 90.092 82.5617 91.2087 80.7241C92.0182 79.3913 93.0511 78.1754 94.0735 76.987C96.031 74.7096 98.5993 73.4352 101.509 72.738C102.434 72.5181 103.331 72.0132 104.252 71.9788C107.696 71.8518 111.036 72.4013 113.409 75.1252C115.282 77.272 116.612 79.7452 116.744 82.7335C116.842 84.9799 116.458 87.058 115.551 89.1155C114.536 91.4135 113.22 93.5122 111.489 95.3155C110.572 96.2669 109.399 96.9883 108.342 97.8161Z" fill="#1E1928"/>
<path d="M162.71 76.3174C160.798 72.5837 160.732 68.5992 161.126 64.5701C161.231 63.5019 161.398 62.4233 161.688 61.3929C162.414 58.7961 164.211 57.0958 166.546 55.7768C169.055 54.3616 171.594 53.2831 174.575 53.5751C175.621 53.678 176.69 53.5304 177.743 53.5716C180.343 53.6713 182.203 55.1105 183.585 57.0855C185.186 59.38 186.198 62.0008 186.39 64.7762C186.498 66.3219 186.003 67.9122 185.776 69.4786C185.612 69.7191 185.42 69.9492 185.29 70.2068C185.102 70.5846 184.963 70.9865 184.792 71.3746C183.983 73.2501 182.698 74.7992 181.382 76.3519C179.928 78.0727 178.064 79.2887 176.134 80.2779C174.787 80.9648 173.075 81.2431 171.535 81.2157C168.297 81.1606 165.673 79.6321 163.583 77.2105C163.314 76.8979 163.004 76.6128 162.71 76.3174Z" fill="#7E4239"/>
<path d="M162.71 76.318C163.004 76.6169 163.314 76.8985 163.586 77.2145C165.676 79.6362 168.3 81.1647 171.538 81.2196C173.077 81.2471 174.79 80.9689 176.137 80.2819C178.07 79.2961 179.931 78.0802 181.385 76.3558C182.698 74.7998 183.985 73.2541 184.795 71.3786C184.962 70.9905 185.102 70.5887 185.293 70.2108C185.423 69.9532 185.615 69.723 185.778 69.4826C185.353 71.6912 185.154 73.9411 184.086 76.0089C183.165 77.7882 181.958 79.2926 180.415 80.5601C179.822 81.0479 179.208 81.515 178.604 81.9925C178.165 81.8619 177.728 81.7245 177.285 81.6009C176.933 81.5048 176.514 81.1681 176.344 81.8448C176.326 81.9169 176.043 81.9513 175.883 81.9513C174.306 81.9513 172.728 81.9546 171.154 81.9238C169.545 81.8929 167.937 81.8139 166.328 81.7761C165.874 81.7658 165.418 81.8379 164.964 81.8757C164.427 80.9174 163.796 79.9968 163.377 78.9904C163.02 78.1488 162.92 77.2111 162.71 76.318Z" fill="#DFB995"/>
<path d="M55.7344 349.054C55.4029 348.882 55.054 348.738 54.7468 348.528C53.5989 347.745 53.0021 346.846 52.8834 345.286C52.5694 341.171 52.4299 337.063 52.4927 332.941C52.5345 330.042 52.3356 327.125 53.0371 324.265C53.0579 324.182 53.0545 324.096 53.0545 324.01C53.0021 317.292 53.1941 310.555 52.8067 303.854C52.5345 299.086 52.4822 294.371 53.0266 289.637C53.0684 289.27 53.0545 288.899 53.0545 288.528C53.0789 277.564 53.0196 266.599 53.1626 255.636C53.222 251.118 53.7489 246.612 54.0071 242.095C54.1013 240.45 54.021 238.794 54.0175 237.145C54.0315 236.719 54.0455 236.293 54.0629 235.867C54.1955 231.948 54.3282 228.029 54.4607 224.11C54.7713 223.986 55.0818 223.862 55.3924 223.743C57.8559 224.017 60.316 224.316 62.783 224.566C67.6264 225.065 72.4767 225.491 77.3132 226.037C79.9162 226.332 82.488 226.888 85.0876 227.198C88.1793 227.565 91.2849 227.782 94.3835 228.101C94.9 228.156 95.3955 228.407 95.9015 228.568C95.7375 234.425 95.6292 240.282 95.392 246.135C95.2559 249.483 94.9418 252.829 94.6627 256.171C94.401 259.283 94.0241 262.388 93.7973 265.504C93.4448 270.409 93.1867 275.317 92.8727 280.225C92.6528 283.688 92.4015 287.147 92.1747 290.606C92.1015 291.712 92.098 292.824 92.0142 293.931C91.7595 297.362 91.4978 300.791 91.2047 304.218C90.8278 308.608 90.416 312.991 90.0252 317.381C89.9728 317.975 89.9171 318.573 89.9206 319.17C89.945 322.674 89.4564 326.136 89.111 329.612C88.8249 332.495 88.7306 335.397 88.5631 338.289C88.4096 340.954 88.291 343.623 88.113 346.286C88.0467 347.272 87.8652 348.254 87.7117 349.232C87.6279 349.776 86.4416 350.476 85.7332 350.483C85.0143 350.49 84.2955 350.552 83.5802 350.586C82.2647 350.696 80.9492 350.864 79.6301 350.902C78.6286 350.93 77.6237 350.782 76.6187 350.737C74.6611 350.648 72.6547 350.809 70.7565 350.438C67.452 349.793 64.1509 349.497 60.7906 349.511C59.1051 349.531 57.4198 349.219 55.7344 349.054Z" fill="#0E8D64"/>
<path d="M66.6732 148.959C66.8686 149.811 67.064 150.662 67.2629 151.514C67.6991 153.389 68.1213 155.272 68.5854 157.141C68.8123 158.047 69.0809 158.948 69.402 159.823C70.065 161.634 70.8816 163.399 71.4364 165.24C71.8028 166.459 72.4483 167.452 73.202 168.424C73.3032 168.554 73.38 168.706 73.4672 168.85C71.0839 170.832 68.1353 171.811 65.4554 173.264C63.9654 174.071 62.4509 174.896 61.1563 175.957C60.2177 176.73 59.4815 177.836 58.9127 178.925C58.3996 179.907 57.5098 180.45 56.8155 180.155C56.0897 179.845 55.3045 179.224 54.9975 178.54C54.6381 177.74 54.7671 176.726 54.6939 175.806C54.652 175.298 54.6031 174.789 54.6031 174.281C54.5857 171.65 54.4776 169.015 54.6101 166.391C54.7252 164.096 54.3798 161.706 55.301 159.525C56.7492 156.093 58.1205 152.504 61.6868 150.601C63.2047 149.794 65.0017 149.491 66.6732 148.959Z" fill="#DFB995"/>
<path d="M54.4539 224.114C54.3213 228.033 54.1887 231.952 54.0561 235.871C54.0422 236.297 54.0282 236.723 54.0107 237.149C53.2081 237.21 52.5556 236.922 51.9973 236.359C51.0517 235.411 50.0432 234.521 49.1464 233.528C48.6404 232.969 48.2775 232.275 47.9077 231.608C47.4959 230.867 47.2167 230.052 46.7701 229.335C45.0219 226.521 43.8738 223.447 43.2527 220.257C42.8619 218.254 43.1445 216.124 43.1236 214.049C43.7342 214.829 44.3449 215.608 44.9556 216.388C45.0219 216.375 45.0847 216.361 45.151 216.348C45.1196 215.922 45.0881 215.495 45.0567 215.073C45.1056 215.059 45.1545 215.049 45.2033 215.035C45.8768 216.43 46.4316 217.893 47.2586 219.195C48.0577 220.456 49.0278 221.647 50.113 222.681C51.2192 223.736 52.7614 223.897 54.2619 223.972C54.3248 224.017 54.3911 224.066 54.4539 224.114Z" fill="#E8B79C"/>
<path d="M54.4543 224.114C54.3881 224.066 54.3253 224.021 54.2625 223.973C54.1368 222.747 53.9519 221.52 53.8961 220.29C53.8019 218.209 53.8298 216.121 53.7251 214.04C53.6902 213.366 53.3308 212.713 53.261 212.037C53.1668 211.117 53.1843 210.182 53.1983 209.251C53.2296 207.503 53.2854 205.754 53.3483 204.006C53.3762 203.23 53.6274 202.415 53.4634 201.684C53.0343 199.781 53.439 197.896 53.3936 196.006C53.3518 194.306 53.3553 192.551 53.7355 190.908C54.2101 188.869 54.0496 186.859 54.0601 184.826C54.0671 183.658 54.1787 182.487 54.3008 181.326C54.3218 181.12 54.6323 180.941 54.8103 180.752C54.9604 180.931 55.229 181.102 55.243 181.291C55.3406 182.518 55.3825 183.747 55.4489 184.977C55.5221 186.375 55.5989 187.77 55.6756 189.163C55.6791 189.246 55.6931 189.336 55.6791 189.414C55.3895 191.084 55.072 192.75 54.8138 194.422C54.7545 194.8 54.922 195.205 54.9255 195.597C54.936 196.758 54.915 197.919 54.9045 199.08C54.8941 200.169 54.8836 201.258 54.8626 202.344C54.8312 203.985 54.765 205.628 54.7685 207.269C54.772 208.18 54.9115 209.09 54.9464 210C54.9917 211.136 54.9847 212.274 55.0092 213.411C55.0127 213.552 55.0406 213.702 55.0999 213.827C55.8013 215.241 55.5256 216.764 55.6268 218.247C55.6652 218.8 55.7664 219.353 55.7315 219.902C55.6513 221.184 55.5047 222.461 55.3825 223.74C55.079 223.867 54.7685 223.99 54.4543 224.114Z" fill="#1E1928"/>
<path d="M55.7338 349.054C57.4192 349.223 59.101 349.532 60.7865 349.525C64.1468 349.511 67.4479 349.807 70.7524 350.452C72.6506 350.823 74.657 350.658 76.6146 350.752C77.6196 350.796 78.6245 350.947 79.626 350.916C80.9451 350.878 82.2606 350.71 83.5761 350.6C84.7555 352.551 86.263 354.056 88.3148 355.271C90.4224 356.522 92.722 357.044 94.9238 357.906C97.4293 358.889 99.9801 359.761 102.517 360.665C103.822 361.128 105.054 361.715 105.605 363.058C106.135 364.357 106.013 365.676 105.64 367.036C105.162 368.774 103.777 369.131 102.321 369.461C96.7209 370.732 91.1133 371.98 85.5128 373.253C81.6848 374.122 77.8674 375.054 74.0325 375.888C72.9995 376.114 71.9108 376.076 70.8535 376.204C69.1681 376.403 67.4688 376.547 65.8078 376.87C62.58 377.495 59.4744 377.324 56.5118 375.83C55.493 375.314 54.9381 374.572 54.9556 373.333C55.0323 367.726 54.9591 362.117 55.0777 356.512C55.1336 354.022 55.5069 351.538 55.7338 349.054Z" fill="#7E4239"/>
<path d="M237.96 388.361C237.639 388.283 237.312 388.217 236.997 388.118C235.469 387.626 233.93 387.176 232.43 386.613C231.55 386.283 231.076 385.586 231.194 384.59C231.456 382.34 231.694 380.083 231.976 377.836C232.053 377.242 232.272 376.665 232.426 376.081C232.956 376.185 233.483 376.336 234.021 376.381C235.06 376.469 236.108 376.49 237.151 376.559C237.664 376.594 238.173 376.731 238.682 376.727C242.444 376.703 246.206 376.85 249.96 376.408C251.579 376.216 252.683 375.429 252.808 373.901C252.976 374.024 253.128 374.234 253.31 374.261C254.919 374.492 256.545 374.636 258.143 374.917C259.657 375.182 261.026 375.786 261.947 377.098C262.641 378.771 262.473 379.52 260.952 380.622C259.71 381.525 258.398 382.34 257.09 383.154C256.098 383.769 255.097 384.394 254.032 384.875C252.766 385.445 251.444 385.902 250.121 386.342C247.985 387.049 245.829 387.695 243.683 388.368C241.775 388.361 239.865 388.361 237.96 388.361Z" fill="white"/>
<path d="M201.871 388.36C200.808 388.075 199.754 387.722 198.675 387.522C196.795 387.175 195.992 386.223 196.146 384.345C196.32 382.232 196.442 380.117 197.196 378.093C197.408 377.516 197.447 376.877 197.566 376.265C197.751 376.671 198.044 376.778 198.505 376.771C200.483 376.729 202.465 376.736 204.447 376.733C206.178 376.729 207.908 376.743 209.643 376.729C211.307 376.719 212.592 375.799 213.795 374.844C214.232 374.497 214.33 373.734 214.584 373.164C214.619 373.089 214.682 373.027 214.731 372.954C217.149 373.291 219.592 373.511 221.975 374.009C223.265 374.277 224.487 374.953 225.676 375.568C226.598 376.043 226.692 377.244 225.914 377.963C223.632 380.065 221.186 381.957 218.383 383.352C215.739 384.671 213.087 385.979 210.396 387.202C209.29 387.708 208.076 387.979 206.911 388.36C205.225 388.36 203.55 388.36 201.871 388.36Z" fill="white"/>
<path d="M193.525 284.297C193.472 284.297 193.423 284.297 193.371 284.297C193.371 282.075 193.371 279.856 193.371 277.634C193.423 277.634 193.472 277.634 193.525 277.634C193.525 279.852 193.525 282.075 193.525 284.297Z" fill="white"/>
<path d="M341.066 203.786C341.324 205.978 341.572 208.17 341.841 210.361C341.991 211.58 342.256 212.793 342.308 214.016C342.43 216.846 342.402 219.684 342.528 222.51C342.643 225.073 342.957 227.628 343.062 230.191C343.295 235.868 343.435 241.553 343.648 247.231C343.791 251.119 344.001 255.004 344.161 258.889C344.28 261.757 344.371 264.625 344.457 267.494C344.545 270.448 344.664 273.405 344.667 276.362C344.671 278.774 344.531 281.188 344.447 283.6C344.36 286.124 344.311 288.652 344.15 291.174C343.997 293.582 343.641 295.975 343.512 298.38C343.4 300.451 343.484 302.53 343.491 304.604C343.495 306.503 343.512 308.403 343.519 310.303C343.519 310.443 343.47 310.584 343.463 310.725C343.348 313.249 343.218 315.774 343.132 318.299C343.013 321.793 342.981 325.289 342.807 328.783C342.668 331.585 342.378 334.378 342.14 337.173C341.879 340.252 341.565 343.326 341.345 346.407C341.038 350.68 340.849 354.963 340.5 359.236C340.305 361.606 339.901 363.959 339.552 366.316C339.482 366.775 339.233 367.212 339.07 367.662C338.913 366.978 338.49 366.855 337.87 367.082C337.684 367.146 337.475 367.163 337.276 367.163C332.147 367.109 327.018 367.068 321.887 366.971C320.513 366.943 319.141 366.761 317.773 366.617C315.865 366.415 313.956 366.215 312.055 365.952C310.669 365.758 309.253 365.6 307.93 365.174C306.862 364.831 305.934 364.082 304.908 363.581C303.387 362.84 302.323 361.729 301.799 360.132C301.918 359.232 302.127 358.333 302.134 357.432C302.162 354.187 302.099 350.941 302.116 347.694C302.19 333.206 302.228 318.718 302.392 304.233C302.434 300.43 302.884 296.632 303.125 292.829C303.192 291.778 303.132 290.72 303.222 289.676C303.443 287.072 303.767 284.472 303.956 281.865C304.161 278.973 304.294 276.074 304.399 273.175C304.499 270.389 304.513 267.6 304.576 264.811C304.629 262.451 304.737 260.095 304.744 257.735C304.765 250.446 304.786 243.157 304.73 235.868C304.692 231.035 304.52 226.203 304.406 221.366C304.406 221.297 304.378 221.229 304.151 221.133C302.612 228.857 301.073 236.583 299.535 244.308C299.199 245.043 298.704 245.754 298.561 246.524C298.313 247.874 297.569 248.872 296.178 248.907C293.64 248.969 291.082 249.055 288.571 248.791C285.841 248.505 283.106 248.004 280.458 247.297C276.696 246.29 272.983 245.095 269.308 243.809C266.741 242.913 264.27 241.732 261.757 240.678C261.733 240.416 261.621 240.127 261.694 239.898C262.451 237.514 263.122 235.095 264.043 232.773C266.318 227.038 268.726 221.353 271.053 215.637C272.501 212.079 273.918 208.506 275.311 204.923C275.597 204.188 275.97 203.762 276.818 203.968C276.978 204.02 277.139 204.12 277.3 204.117C281.341 204.041 285.378 203.954 289.419 203.862C290.427 203.838 291.439 203.701 292.44 203.741C294.799 203.835 297.154 204.075 299.517 204.127C304.193 204.226 308.872 204.168 313.548 204.309C317.666 204.432 321.78 204.734 325.897 204.965C326.298 204.989 326.696 205.099 327.097 205.102C329.976 205.122 332.869 205.295 335.73 205.078C337.524 204.954 339.282 204.24 341.066 203.786Z" fill="#592141"/>
<path d="M199.426 324.294C198.034 324.118 196.641 323.926 195.246 323.774C194.51 323.696 194.164 323.39 194.223 322.62C194.468 319.378 194.635 316.129 194.931 312.889C195.222 309.713 195.616 306.542 195.986 303.371C196.126 302.193 196.328 301.022 196.502 299.847C196.669 299.05 196.855 298.261 197.001 297.46C197.859 292.874 198.616 288.265 199.59 283.703C200.375 280.021 201.422 276.39 202.343 272.736C203.561 267.9 204.712 263.043 206.004 258.223C207.211 253.73 208.492 249.258 210.265 244.93C211.001 243.137 211.416 241.214 211.963 239.344C212.543 237.374 213.782 235.759 214.94 234.113C215.952 232.675 217.087 231.318 218.168 229.923C219.372 228.398 220.949 227.392 222.722 226.595C224.767 225.671 226.756 224.63 228.776 223.651C228.996 223.545 229.254 223.517 229.495 223.455C231.11 225.815 233.285 227.48 236.017 228.377C238.892 229.322 241.823 229.013 244.737 228.511C244.552 230.452 244.374 232.393 244.172 234.333C244.119 234.835 243.899 235.34 243.934 235.832C244.046 237.438 244.237 239.043 244.405 240.647C244.514 241.687 244.677 242.728 244.74 243.773C244.841 245.431 244.908 247.098 244.929 248.76C244.953 250.57 244.789 252.387 244.943 254.184C245.033 255.245 245.585 256.197 246.883 256.519C248.387 256.894 249.866 257.392 251.321 257.928C252.385 258.319 253.412 258.642 254.581 258.529C255.749 258.412 256.175 258.106 256.559 257.001C256.887 256.046 257.334 255.131 257.728 254.201C257.815 254.547 257.917 254.891 257.993 255.242C258.614 258.051 259.232 260.865 259.85 263.677C260.157 265.67 260.407 267.673 260.788 269.651C261.797 274.924 262.857 280.189 263.905 285.455C264.676 289.329 265.573 293.184 266.207 297.079C266.877 301.19 267.331 305.339 267.83 309.479C268.308 313.449 268.734 317.43 269.163 321.408C269.274 322.445 269.313 323.49 269.393 324.651C268.855 324.651 268.406 324.671 267.956 324.647C267.076 324.599 266.2 324.469 265.321 324.479C262.519 324.507 259.72 324.582 256.922 324.644C256.754 324.647 256.587 324.706 256.419 324.739C256.081 324.702 255.742 324.654 255.401 324.633C254.081 324.554 252.762 324.479 251.447 324.413C249.441 324.314 247.435 324.145 245.427 324.152C243.421 324.159 241.414 324.42 239.408 324.441C236.965 324.465 234.519 324.355 232.077 324.3C231.25 324.29 230.423 324.266 229.6 324.283C229.264 324.29 228.929 324.393 228.594 324.451C228.158 324.337 227.725 324.142 227.286 324.129C224.445 324.043 221.605 323.956 218.764 323.953C216.346 323.949 213.924 324.067 211.506 324.112C207.476 324.18 203.449 324.235 199.426 324.294Z" fill="#BBB7E2"/>
<path d="M341.066 203.787C339.286 204.24 337.524 204.954 335.72 205.089C332.858 205.301 329.965 205.133 327.087 205.112C326.685 205.109 326.287 204.999 325.886 204.975C321.773 204.745 317.659 204.443 313.537 204.32C308.861 204.178 304.182 204.237 299.507 204.137C297.147 204.086 294.792 203.845 292.429 203.752C291.425 203.715 290.416 203.852 289.408 203.873C285.371 203.965 281.33 204.051 277.289 204.126C277.128 204.13 276.967 204.031 276.808 203.979C276.532 203.873 276.256 203.769 275.932 203.646C276.175 202.993 276.385 202.378 276.636 201.781C278.385 197.587 280.133 193.393 281.902 189.209C282.799 187.086 283.814 185.012 284.648 182.865C285.8 179.904 286.896 176.915 287.896 173.9C288.511 172.055 288.919 170.142 289.373 168.25C289.422 168.047 289.212 167.638 289.021 167.553C286.284 166.347 283.531 165.182 280.782 164.004C277.425 162.568 274.069 161.133 270.708 159.7C268.666 158.831 266.625 157.966 264.72 157.155C264.057 158.55 263.415 159.903 262.773 161.253C263.017 160.154 263.185 159.03 263.52 157.959C264.685 154.221 265.948 150.508 267.103 146.767C268.132 143.429 268.984 140.035 270.079 136.721C271.032 133.835 272.152 130.995 273.342 128.192C273.764 127.199 274.532 126.31 275.272 125.489C278.127 122.328 280.998 119.178 283.943 116.104C285.182 114.813 286.526 113.583 288.218 112.831C288.504 112.704 288.811 112.632 289.111 112.532C289.461 112.649 289.813 112.766 290.162 112.886C290.838 113.116 291.501 113.415 292.196 113.566C294.813 114.136 297.336 113.525 299.824 112.817C300.804 112.539 301.732 112.069 302.682 111.687C304.685 111.537 306.297 112.498 307.867 113.507C309.595 114.621 311.339 115.727 312.951 116.991C315.516 119.007 318.035 121.051 320.143 123.596C323.333 127.454 325.474 131.86 327.624 136.288C329.683 140.536 330.789 145.102 332.15 149.581C332.925 152.133 333.713 154.685 334.404 157.261C335.465 161.208 336.498 165.162 337.447 169.135C338.197 172.271 338.808 175.442 339.475 178.599C340.05 181.316 340.689 184.023 341.167 186.753C341.708 189.848 342.098 192.967 342.566 196.076C342.692 196.914 342.995 197.745 342.995 198.58C342.995 199.459 342.859 200.39 342.545 201.208C342.189 202.125 341.569 202.932 341.066 203.787Z" fill="#DFB995"/>
<path d="M256.412 324.735C256.58 324.701 256.747 324.643 256.915 324.639C259.714 324.577 262.516 324.502 265.314 324.474C266.19 324.464 267.07 324.594 267.949 324.643C268.399 324.667 268.85 324.646 269.386 324.646C269.306 323.485 269.268 322.441 269.156 321.404C268.727 317.426 268.305 313.448 267.823 309.474C267.324 305.335 266.87 301.189 266.201 297.074C265.566 293.179 264.669 289.324 263.898 285.45C262.85 280.184 261.79 274.919 260.782 269.647C260.404 267.668 260.153 265.665 259.843 263.673C261.138 264.22 262.401 264.865 263.733 265.291C265.841 265.961 268.002 266.473 270.133 267.077C273.968 268.162 277.869 268.798 281.861 268.939C285.714 269.073 289.52 268.668 293.324 268.173C293.708 268.121 293.858 268.176 293.852 268.55C293.464 270.643 293.087 272.738 292.686 274.83C291.887 279.013 291.104 283.204 290.261 287.38C289.573 290.774 288.826 294.158 288.069 297.537C287.151 301.635 286.189 305.726 285.25 309.821C284.321 313.891 283.341 317.951 282.5 322.039C281.99 324.512 281.729 327.03 281.31 329.524C280.958 331.626 280.546 333.717 280.145 335.81C279.332 340.045 278.543 344.287 277.678 348.511C277.245 350.624 276.644 352.702 276.166 354.808C275.511 357.686 274.9 360.575 274.268 363.456C274.195 363.79 274.105 364.12 274.021 364.449C273.306 364.617 272.59 364.924 271.871 364.931C267.457 364.975 263.043 364.962 258.629 364.941C257.826 364.937 257.027 364.824 256.228 364.755C255.356 364.683 254.483 364.607 253.663 364.539C253.568 365.037 253.496 365.421 253.426 365.802C253.437 365.15 253.423 364.494 253.468 363.845C253.673 360.702 253.911 357.559 254.106 354.416C254.257 352.036 254.302 349.648 254.5 347.272C254.905 342.462 255.38 337.657 255.83 332.849C256.046 330.534 256.284 328.219 256.486 325.899C256.521 325.515 256.44 325.123 256.412 324.735Z" fill="#592141"/>
<path d="M262.773 161.26C263.415 159.91 264.057 158.556 264.72 157.162C266.625 157.973 268.667 158.834 270.708 159.707C274.069 161.14 277.425 162.575 280.782 164.011C283.532 165.186 286.285 166.354 289.021 167.56C289.212 167.645 289.422 168.054 289.373 168.256C288.92 170.149 288.511 172.062 287.897 173.907C286.896 176.922 285.8 179.911 284.648 182.872C283.815 185.019 282.799 187.093 281.902 189.216C280.134 193.4 278.385 197.594 276.636 201.788C276.386 202.385 276.176 203 275.932 203.653C276.253 203.776 276.529 203.88 276.808 203.986C275.96 203.78 275.586 204.206 275.301 204.941C273.904 208.52 272.492 212.096 271.043 215.654C268.716 221.37 266.308 227.055 264.032 232.791C263.112 235.113 262.441 237.531 261.684 239.915C261.611 240.145 261.723 240.434 261.747 240.695C261.573 240.956 261.318 241.196 261.23 241.484C260.009 245.535 258.809 249.588 257.622 253.644C257.573 253.806 257.689 254.015 257.727 254.201C257.333 255.131 256.89 256.046 256.558 257C256.178 258.106 255.749 258.415 254.58 258.529C253.411 258.645 252.385 258.319 251.321 257.928C249.866 257.392 248.386 256.893 246.882 256.519C245.584 256.197 245.033 255.245 244.942 254.183C244.788 252.387 244.953 250.567 244.928 248.76C244.907 247.098 244.837 245.435 244.739 243.773C244.676 242.728 244.513 241.69 244.405 240.647C244.237 239.043 244.045 237.438 243.933 235.831C243.898 235.34 244.119 234.835 244.171 234.333C244.37 232.392 244.548 230.452 244.736 228.511C245.197 226.073 245.601 223.616 246.132 221.192C247.043 217.014 248.041 212.859 248.99 208.688C249.174 207.871 249.304 207.04 249.458 206.216C249.835 205.13 250.278 204.062 250.581 202.956C251.848 198.322 253.006 193.66 254.326 189.044C255.689 184.27 257.183 179.533 258.638 174.786C259.49 172.015 260.393 169.26 261.244 166.491C261.779 164.756 262.267 163.005 262.773 161.26Z" fill="#EED5CD"/>
<path d="M257.724 254.197C257.686 254.011 257.574 253.802 257.619 253.64C258.809 249.584 260.009 245.531 261.227 241.48C261.315 241.192 261.57 240.952 261.744 240.691C264.257 241.745 266.727 242.923 269.295 243.82C272.969 245.105 276.686 246.3 280.444 247.307C283.092 248.014 285.829 248.515 288.557 248.801C291.07 249.061 293.63 248.979 296.164 248.917C297.557 248.883 298.3 247.887 298.547 246.533C298.691 245.76 299.185 245.053 299.521 244.318C299.688 244.592 299.789 244.977 300.037 245.119C301.904 246.204 302.902 248.024 303.708 249.821C304.176 250.861 303.963 252.297 303.771 253.51C303.237 256.893 302.092 260.133 300.219 262.994C298.826 265.12 297.315 267.349 294.447 267.922C294.217 267.967 294.049 268.331 293.854 268.544C293.861 268.17 293.711 268.115 293.327 268.166C289.523 268.662 285.713 269.067 281.864 268.932C277.872 268.795 273.971 268.159 270.136 267.071C268.004 266.466 265.844 265.958 263.736 265.285C262.404 264.859 261.141 264.213 259.846 263.666C259.228 260.854 258.611 258.044 257.989 255.231C257.913 254.89 257.815 254.543 257.724 254.197Z" fill="#F9C4AA"/>
<path d="M302.686 111.694C301.733 112.076 300.808 112.545 299.828 112.824C297.34 113.531 294.817 114.143 292.2 113.573C291.505 113.422 290.843 113.123 290.166 112.893C289.817 112.772 289.465 112.656 289.115 112.539C288.966 112.313 288.85 112.048 288.659 111.862C286.579 109.825 285.417 107.332 285.347 104.481C285.284 102.028 285.385 99.5452 285.741 97.1232C286.097 94.7085 287.203 92.4861 288.487 90.3908C289.206 89.2126 289.516 87.77 290.773 86.9354C291.128 86.6984 291.447 86.3858 291.83 86.2106C294.154 85.1458 296.607 84.4897 299.171 84.5446C301.367 84.5927 303.552 84.9774 305.481 86.0973C307.216 87.1037 308.628 88.3986 309.308 90.4149C310.049 92.6063 310.415 94.8459 310.293 97.1094C310.094 100.799 309.371 104.429 307.1 107.476C306.081 108.843 304.591 109.867 303.321 111.048C303.094 111.254 302.895 111.478 302.686 111.694Z" fill="white"/>
<path d="M301.795 360.14C302.319 361.737 303.386 362.846 304.904 363.589C305.931 364.09 306.858 364.839 307.927 365.182C309.249 365.605 310.662 365.766 312.051 365.958C313.953 366.223 315.861 366.422 317.77 366.625C319.138 366.769 320.51 366.955 321.884 366.979C327.014 367.075 332.143 367.113 337.272 367.171C337.472 367.175 337.684 367.157 337.866 367.089C338.487 366.862 338.909 366.989 339.066 367.67C339.258 369.472 339.478 371.269 339.635 373.076C339.719 374.038 339.68 375.006 339.712 375.971C339.768 377.671 338.159 379.179 336.585 379.626C334.732 380.152 332.858 380.255 330.939 379.894C328.765 379.485 326.543 379.296 324.383 378.829C321.127 378.122 317.896 377.29 314.671 376.439C311.866 375.7 309.12 374.755 306.174 374.563C304.939 374.481 303.732 373.944 302.51 373.629C301.907 373.471 301.3 373.33 300.689 373.206C297.486 372.551 294.276 371.929 291.205 370.768C290.779 370.607 290.332 370.468 289.882 370.425C288.937 370.328 288.529 369.703 288.246 368.94C288.008 368.301 287.786 367.656 287.614 366.996C287.304 365.787 287.583 365.251 288.765 364.797C292.328 363.43 295.895 362.07 299.472 360.741C300.215 360.463 301.017 360.335 301.795 360.14Z" fill="#1E1928"/>
<path d="M249.454 206.216C249.3 207.041 249.174 207.871 248.986 208.689C248.037 212.859 247.043 217.015 246.128 221.192C245.597 223.617 245.193 226.07 244.732 228.511C241.814 229.013 238.888 229.322 236.012 228.378C233.284 227.481 231.106 225.815 229.49 223.455C228.437 221.34 227.592 219.158 227.069 216.843C226.587 214.72 226.503 212.598 226.992 210.506C227.368 208.895 227.906 207.287 228.621 205.793C229.009 204.986 229.85 204.324 230.617 203.766C233.305 201.822 236.253 200.5 239.687 200.823C242.261 201.067 244.735 201.65 246.641 203.605C247.534 204.522 248.515 205.35 249.454 206.216Z" fill="#7E4239"/>
<path d="M218.167 229.923C217.085 231.318 215.951 232.674 214.939 234.113C213.784 235.759 212.542 237.374 211.962 239.344C211.415 241.214 211 243.137 210.264 244.93C208.487 249.257 207.206 253.73 206.002 258.223C204.708 263.042 203.56 267.896 202.342 272.736C201.42 276.39 200.374 280.02 199.589 283.703C198.615 288.265 197.858 292.874 196.999 297.46C196.85 298.257 196.668 299.05 196.501 299.847C195.918 297.171 195.287 294.502 194.77 291.813C194.292 289.318 193.936 286.801 193.524 284.293C193.524 282.072 193.524 279.849 193.524 277.627C193.71 275.741 193.898 273.852 194.072 271.966C194.104 271.636 194.111 271.296 194.065 270.97C193.643 267.971 194.355 265.172 195.615 262.482C197.073 259.366 198.466 256.214 200.088 253.184C201.362 250.81 203.002 248.63 204.383 246.308C206.767 242.299 209.852 238.802 212.647 235.096C213.969 233.34 215.428 231.77 217.214 230.493C217.515 230.28 217.849 230.112 218.167 229.923Z" fill="#F9C4AA"/>
<path d="M253.429 365.804C253.503 365.422 253.572 365.041 253.666 364.54C254.49 364.608 255.359 364.684 256.231 364.757C257.03 364.821 257.833 364.939 258.632 364.942C263.046 364.959 267.46 364.973 271.874 364.932C272.593 364.925 273.308 364.618 274.024 364.45C274.17 365.429 274.345 366.405 274.453 367.391C274.683 369.524 274.983 371.66 275.06 373.8C275.123 375.607 274.131 376.631 272.202 376.83C268.772 377.184 265.359 376.967 261.944 377.101C261.022 375.789 259.654 375.185 258.14 374.92C256.541 374.639 254.915 374.498 253.307 374.264C253.125 374.237 252.972 374.027 252.804 373.904C253.014 371.2 253.219 368.5 253.429 365.804Z" fill="#1E1928"/>
<path d="M199.425 324.293C203.448 324.231 207.475 324.179 211.499 324.111C213.921 324.07 216.339 323.949 218.757 323.952C221.598 323.956 224.437 324.042 227.277 324.128C227.717 324.141 228.15 324.337 228.586 324.451C227.288 328.83 225.949 333.196 224.699 337.589C223.506 341.79 222.438 346.029 221.262 350.233C220.261 353.812 219.179 357.371 218.135 360.939C216.998 364.831 215.868 368.726 214.741 372.621C214.709 372.728 214.727 372.848 214.723 372.961C214.674 373.03 214.611 373.096 214.576 373.171C214.322 373.741 214.224 374.504 213.788 374.851C212.587 375.806 211.3 376.723 209.635 376.737C207.904 376.75 206.174 376.737 204.439 376.74C202.458 376.744 200.479 376.737 198.497 376.778C198.036 376.788 197.74 376.678 197.558 376.273C197.604 375.115 197.681 373.954 197.688 372.797C197.691 372.062 197.551 371.33 197.548 370.595C197.53 367.607 197.523 364.618 197.548 361.63C197.562 360.043 197.702 358.456 197.698 356.866C197.695 355.049 197.488 353.228 197.565 351.418C197.705 348.079 197.987 344.748 198.21 341.413C198.336 339.516 198.455 337.623 198.58 335.728C198.815 332.138 199.041 328.549 199.282 324.959C199.293 324.732 199.373 324.516 199.425 324.293Z" fill="#F9C4AA"/>
<path d="M253.429 365.804C253.223 368.503 253.014 371.201 252.807 373.9C252.679 375.432 251.579 376.219 249.96 376.411C246.206 376.855 242.444 376.706 238.682 376.73C238.173 376.734 237.664 376.597 237.15 376.562C236.107 376.493 235.06 376.472 234.021 376.384C233.483 376.339 232.956 376.188 232.426 376.084C232.363 374.834 232.3 373.584 232.237 372.337C232.234 368.868 232.227 365.402 232.223 361.933C232.23 358.948 232.255 355.963 232.237 352.981C232.192 344.886 232.125 336.792 232.074 328.697C232.063 327.234 232.074 325.767 232.074 324.304C234.52 324.355 236.962 324.469 239.404 324.445C241.411 324.424 243.418 324.162 245.424 324.155C247.431 324.149 249.437 324.318 251.444 324.417C252.762 324.482 254.081 324.557 255.397 324.637C255.739 324.658 256.077 324.709 256.415 324.743C256.443 325.131 256.524 325.523 256.492 325.907C256.287 328.227 256.053 330.542 255.837 332.857C255.386 337.662 254.912 342.467 254.507 347.28C254.308 349.656 254.263 352.044 254.113 354.424C253.918 357.567 253.68 360.71 253.474 363.853C253.425 364.495 253.439 365.148 253.429 365.804Z" fill="#F9C4AA"/>
<path d="M232.22 361.929C232.223 365.398 232.23 368.864 232.233 372.333C230.527 371.873 228.821 371.419 227.118 370.956C226.626 370.821 226.13 370.688 225.652 370.516C225.261 370.375 224.749 370.275 224.539 369.984C223.817 368.977 223.13 367.878 223.433 366.576C223.531 366.16 224.085 365.851 224.431 365.494C225.663 364.226 227.202 363.585 228.915 363.179C229.969 362.928 230.946 362.368 231.958 361.953C232.039 361.922 232.132 361.935 232.22 361.929Z" fill="#1E1928"/>
<path d="M407.874 65.7132C407.866 65.592 407.857 65.4665 407.849 65.3412C409.127 65.3412 410.406 65.337 411.684 65.337C411.675 65.4623 411.671 65.5878 411.663 65.7132C410.401 65.7132 409.14 65.7132 407.874 65.7132Z" fill="white"/>
<path d="M411.689 65.3375C410.41 65.3375 409.132 65.3417 407.854 65.3417C400.151 64.865 393.136 62.4064 386.753 58.1371C388.397 57.7733 390.107 57.4179 391.81 57.0123C392.478 56.8534 393.102 56.5022 393.772 56.3976C395 56.2053 396.257 56.2052 397.475 55.9837C401.48 55.2645 405.535 54.7083 409.251 52.8977C411.693 51.7102 414.229 50.6649 416.526 49.2474C418.033 48.315 419.371 46.9727 420.466 45.5719C422.688 42.737 424.722 39.764 426.773 36.8077C428.454 34.3824 429.627 31.7649 429.605 28.7376C429.597 27.2908 429.766 25.844 429.753 24.3973C429.728 21.1316 429.486 17.8617 429.631 14.6044C429.745 11.9366 430.412 9.29399 430.603 6.62625C430.726 4.89932 430.425 3.14313 430.31 1.40366C430.289 1.08587 430.246 0.768084 430.353 0.375031C431.953 2.12286 434.106 3.09295 435.584 5.06658C437.104 7.09875 438.404 9.24799 439.758 11.3596C441.011 13.3082 441.771 15.5159 441.996 17.8617C442.043 18.3677 442.255 18.8569 442.349 19.3629C442.663 21.0856 443.036 22.8 443.228 24.5353C443.406 26.1409 443.423 27.7716 443.444 29.3899C443.504 34.1525 442.536 38.7019 440.451 43.0088C439.67 44.627 439.028 46.333 438.069 47.8466C435.971 51.1625 433.567 54.2317 430.127 56.3768C428.955 57.1085 428.009 58.1747 426.861 58.9483C424.696 60.4076 422.505 61.8419 420.237 63.1297C419.108 63.7694 417.774 64.058 416.534 64.5054C416.372 64.6099 416.212 64.7187 416.046 64.8274C415.706 64.911 415.371 64.9905 415.031 65.074C414.891 65.0782 414.75 65.0824 414.611 65.0908C414.338 65.1075 414.067 65.1201 413.795 65.1368C413.506 65.1953 413.217 65.2538 412.929 65.3124C412.517 65.325 412.105 65.3333 411.689 65.3375Z" fill="white"/>
<path d="M412.932 65.3212C413.221 65.2623 413.509 65.2035 413.799 65.1446C413.509 65.2035 413.221 65.2623 412.932 65.3212Z" fill="white"/>
<path d="M416.049 64.8356C416.211 64.7268 416.372 64.6223 416.538 64.5135C416.376 64.6223 416.211 64.731 416.049 64.8356Z" fill="white"/>
<path d="M414.614 65.0993C414.753 65.0951 414.894 65.0909 415.034 65.0824C414.898 65.0866 414.753 65.0909 414.614 65.0993Z" fill="white"/>
</g>
</g>
<g clip-path="url(#clip2_1_223)">
<g clip-path="url(#clip3_1_223)">
<path d="M418.223 394.327C418.223 393.184 418.214 392.033 418.214 390.889C418.368 389.265 418.476 387.631 418.692 386.015C419.143 382.56 419.531 379.105 420.145 375.677C420.758 372.248 421.669 368.883 422.337 365.464C422.689 363.687 422.734 361.857 423.04 360.071C423.69 356.25 424.276 352.411 425.151 348.643C426.116 344.501 427.406 340.43 428.516 336.314C429.265 333.502 429.914 330.664 430.663 327.852C430.988 326.619 431.484 325.432 431.854 324.209C433.261 319.548 434.569 314.852 436.084 310.237C436.968 307.541 438.204 304.961 439.278 302.327C439.828 300.979 440.261 299.559 440.955 298.292C441.812 296.738 442.85 295.283 443.887 293.846C444.419 293.105 445.141 293.203 445.493 293.988C446.241 295.667 447.017 297.345 447.495 299.104C448.316 302.148 448.903 305.255 449.624 308.326C450.238 310.951 450.95 313.558 451.537 316.182C452.033 318.397 452.484 320.628 452.827 322.879C453.323 326.181 453.647 329.503 454.153 332.806C454.658 336.145 455.352 339.457 455.858 342.796C456.327 345.93 456.687 349.072 457.048 352.215C457.499 356.099 457.95 359.982 458.338 363.865C458.564 366.16 458.681 368.472 458.843 370.775C458.843 376.195 458.843 381.613 458.834 387.042C458.672 388.059 458.401 389.069 458.356 390.086C458.194 393.979 457.68 397.827 456.363 401.487C455.488 403.906 454.279 406.263 452.854 408.405C452.051 409.611 450.589 410.494 449.272 411.245C447.793 412.093 446.124 412.62 444.546 413.289C444.645 412.432 444.825 411.575 444.843 410.718C444.888 408.2 444.879 405.683 444.888 403.165C444.888 402.719 444.888 402.272 444.888 401.754C442.732 401.63 440.73 401.513 438.691 401.388C438.159 405.299 437.654 409.075 437.14 412.851C433.558 411.789 430.212 410.343 427.479 407.709C426.279 406.549 424.835 405.62 423.645 404.451C421.074 401.916 419.432 398.826 418.422 395.398C418.386 395.247 418.35 395.103 418.314 394.952C418.277 394.746 418.25 394.541 418.223 394.327Z" fill="#A0B4BB"/>
<path d="M437.139 412.869C437.653 409.093 438.158 405.308 438.69 401.406C440.729 401.522 442.732 401.648 444.888 401.772C444.888 402.29 444.888 402.737 444.888 403.183C444.879 405.701 444.888 408.218 444.842 410.735C444.824 411.592 444.653 412.45 444.545 413.307C444.473 418.056 444.4 422.806 444.328 427.511C441.766 427.895 439.331 428.26 436.859 428.636C436.949 423.253 437.039 418.065 437.139 412.869Z" fill="#A0B4BB"/>
<path d="M563.872 305.264C563.863 305.115 563.857 304.966 563.848 304.817C563.784 304.382 563.725 303.947 563.661 303.512C563.617 302.91 563.574 302.304 563.529 301.702C563.492 301.357 563.46 301.011 563.423 300.665C563.384 300.459 563.348 300.251 563.309 300.045C563.3 299.956 563.291 299.863 563.282 299.774C563.215 299.33 563.149 298.886 563.083 298.442C563.046 298.096 563.011 297.75 562.972 297.404C562.932 297.246 562.894 297.091 562.854 296.934C562.842 296.844 562.83 296.752 562.818 296.662C562.781 296.555 562.746 296.445 562.71 296.337C562.701 296.248 562.691 296.159 562.679 296.066C562.664 295.869 562.646 295.673 562.631 295.476C562.622 295.288 562.613 295.103 562.605 294.916C562.489 294.549 562.375 294.182 562.261 293.816C562.252 293.676 562.24 293.536 562.23 293.399C562.212 292.856 562.194 292.314 562.176 291.768C562.17 291.58 562.165 291.396 562.159 291.208C562.119 290.999 562.08 290.791 562.04 290.582C562.028 290.445 562.017 290.308 562.005 290.174C561.941 290.054 561.876 289.935 561.809 289.816C561.794 289.676 561.781 289.536 561.766 289.399C561.728 289.095 561.691 288.791 561.652 288.487C561.646 288.248 561.64 288.007 561.631 287.768C561.616 287.423 561.597 287.077 561.583 286.731C561.547 286.484 561.514 286.236 561.477 285.989C561.384 285.634 561.294 285.283 561.2 284.928C561.188 284.835 561.176 284.746 561.161 284.654C561.152 284.457 561.143 284.257 561.134 284.061C561.101 283.715 561.065 283.366 561.031 283.02C560.987 282.618 560.944 282.216 560.899 281.813C560.89 281.575 560.878 281.333 560.868 281.095C560.862 280.997 560.854 280.898 560.848 280.8C560.809 280.6 560.772 280.403 560.733 280.204C560.67 279.909 560.61 279.611 560.547 279.316C560.532 279.178 560.52 279.041 560.504 278.907C560.444 278.788 560.381 278.666 560.32 278.547C560.305 278.359 560.29 278.171 560.278 277.983C560.234 277.828 560.191 277.673 560.146 277.518C560.04 277.029 559.935 276.544 559.83 276.055C559.815 275.906 559.797 275.76 559.782 275.611C559.649 275.116 559.514 274.621 559.381 274.126C559.366 273.93 559.351 273.733 559.336 273.533C559.327 273.396 559.317 273.259 559.308 273.122C559.243 272.955 559.173 272.788 559.104 272.618C559.092 272.529 559.08 272.437 559.071 272.347C558.986 272.091 558.902 271.834 558.817 271.578C558.803 271.438 558.791 271.301 558.776 271.161C558.739 271.003 558.7 270.848 558.664 270.69C558.604 270.401 558.54 270.115 558.48 269.826C558.468 269.727 558.453 269.629 558.441 269.53C558.432 269.441 558.423 269.355 558.417 269.265C558.377 269.107 558.336 268.946 558.293 268.788C558.281 268.601 558.272 268.416 558.263 268.228C558.124 267.721 557.983 267.218 557.844 266.711C557.835 266.475 557.826 266.24 557.817 266.001C557.776 265.793 557.733 265.584 557.691 265.376C557.682 265.238 557.669 265.101 557.66 264.967C557.598 264.797 557.534 264.628 557.471 264.461C557.438 264.234 557.404 264.005 557.371 263.778C557.302 263.611 557.23 263.444 557.161 263.277C557.152 263.185 557.143 263.095 557.134 263.003C557.097 262.797 557.059 262.592 557.022 262.383C557.01 262.243 556.998 262.103 556.986 261.966C556.922 261.718 556.859 261.471 556.796 261.224C556.784 261.087 556.775 260.952 556.763 260.815C556.697 260.696 556.63 260.577 556.564 260.458C556.558 260.365 556.552 260.276 556.546 260.183C556.531 259.987 556.516 259.79 556.504 259.593C556.465 259.346 556.426 259.099 556.386 258.851C556.35 258.744 556.311 258.634 556.275 258.526C556.263 258.437 556.251 258.347 556.239 258.258C556.199 258.151 556.158 258.043 556.118 257.936C556.013 257.549 555.904 257.161 555.796 256.774C555.753 256.616 555.712 256.461 555.669 256.303C555.181 253.895 554.775 251.468 554.184 249.084C553.419 246.002 552.648 242.908 551.63 239.901C550.229 235.767 548.795 231.627 546.611 227.809C545.325 225.562 544.057 223.293 542.619 221.138C541.111 218.873 539.062 217.228 536.264 216.706C534.754 216.426 533.245 216.131 531.733 215.857C530.808 215.687 529.878 215.428 528.949 215.416C527.42 215.395 525.874 215.449 524.358 215.648C522.738 215.863 521.121 216.2 519.547 216.641C517.999 217.076 516.487 217.654 514.999 218.265C512.932 219.112 510.86 219.961 508.869 220.96C506.79 222.003 504.844 223.276 503.013 224.724C502.003 225.52 500.904 226.199 499.843 226.933C499.741 227.004 499.639 227.073 499.542 227.15C498.319 228.155 497.036 229.097 495.897 230.184C494.524 231.496 493.174 232.855 491.996 234.339C490.219 236.581 488.514 238.894 486.932 241.275C484.537 244.881 482.989 248.896 481.471 252.923C480.311 255.993 479.091 259.045 477.772 262.052C475.955 266.189 474.801 270.52 473.819 274.898C473.488 276.377 473.437 277.921 473.289 279.438C472.988 282.523 472.705 285.61 472.419 288.698C472.388 289.017 472.412 289.339 472.397 289.661C472.253 292.636 472.06 295.61 471.973 298.588C471.924 300.212 472.021 301.842 472.117 303.467C472.205 304.915 472.352 306.361 472.53 307.801C472.708 309.24 472.973 310.671 473.169 312.107C473.286 312.984 473.331 313.869 473.428 314.748C473.795 318.095 474.181 321.443 474.542 324.793C474.642 325.723 474.711 326.655 474.759 327.588C474.88 329.901 474.934 332.22 475.1 334.53C475.214 336.098 475.449 337.66 475.681 339.216C475.985 341.257 476.302 343.298 476.675 345.331C477.205 348.24 478.467 350.875 480.007 353.367C481.278 355.424 482.54 357.525 484.116 359.34C485.556 361 487.131 362.606 489.068 363.796C492.809 366.094 496.527 368.434 500.232 370.791C502.278 372.091 504.419 373.158 506.721 373.941C508.414 374.517 510.065 375.211 511.736 375.852C511.89 374.66 512.134 373.471 512.179 372.272C512.258 370.347 512.203 368.419 512.209 366.493C512.212 365.951 512.188 365.402 512.249 364.866C512.472 362.89 512.749 360.923 512.96 358.946C513.098 357.627 513.17 356.3 513.24 354.974C513.249 354.792 513.137 354.514 512.993 354.431C512.291 354.022 511.571 353.638 510.836 353.296C509.354 352.61 507.784 352.073 506.377 351.262C504.757 350.33 503.202 349.248 501.741 348.079C500.148 346.804 498.669 345.379 497.196 343.963C496.614 343.403 496.207 342.672 495.695 342.038C493.704 339.567 491.96 336.935 490.433 334.163C490.294 333.913 490.243 333.537 490.318 333.266C490.707 331.922 491.123 330.584 491.59 329.263C492.062 327.934 492.608 326.628 493.183 325.153C493.53 325.884 493.776 326.441 494.057 326.981C494.737 328.295 495.379 329.633 496.138 330.902C497.087 332.488 498.051 334.08 499.175 335.544C500.103 336.75 501.226 337.82 502.347 338.863C503.684 340.109 505.007 341.409 506.522 342.414C508.456 343.698 510.568 344.718 512.613 345.83C513.014 346.047 513.463 346.175 513.942 346.366C513.996 345.382 514.011 344.5 514.098 343.621C514.333 341.314 514.794 339.03 514.767 336.694C514.755 335.716 514.936 334.738 515.008 333.761C515.128 332.119 515.315 330.473 515.321 328.828C515.324 327.108 515.104 325.391 515.062 323.672C515.014 321.672 515.02 319.669 515.068 317.669C515.083 317.034 514.866 316.662 514.336 316.378C513.137 315.734 511.86 315.189 510.769 314.393C509.143 313.207 507.567 311.92 506.121 310.522C504.983 309.419 504.01 308.128 503.082 306.838C502.338 305.807 501.756 304.656 501.127 303.544C500.181 301.872 499.208 300.212 498.334 298.504C497.786 297.437 497.367 296.299 496.943 295.175C496.211 293.25 495.497 291.318 494.834 289.369C494.728 289.059 494.816 288.564 495.012 288.293C495.828 287.154 496.714 286.061 497.587 284.961C498.111 284.299 498.657 283.655 499.238 282.946C499.392 283.205 499.503 283.342 499.557 283.5C500.232 285.479 500.838 287.482 501.582 289.434C502.847 292.761 504.085 296.078 506.302 298.978C508.197 301.452 510.432 303.547 512.761 305.577C513.556 306.269 514.33 306.987 515.18 307.753C515.246 307.395 515.345 307.112 515.342 306.832C515.309 302.966 515.535 299.115 515.933 295.267C516.195 292.755 516.397 290.236 516.529 287.715C516.689 284.716 516.746 281.712 516.843 278.713C516.852 278.43 516.843 278.147 516.843 277.798C518.906 277.915 520.831 278.022 522.765 278.132C522.795 278.302 522.822 278.398 522.825 278.49C522.964 282.576 522.915 286.666 523.036 290.758C523.295 299.521 523.117 308.298 523.142 317.067C523.145 318.006 523.31 318.941 523.413 320.02C524.286 319.329 525.015 318.751 525.744 318.176C526.347 317.702 527.027 317.3 527.546 316.749C528.949 315.252 530.266 313.711 531.377 311.949C532.781 309.723 533.742 307.342 534.652 304.921C535.363 303.032 535.971 301.1 536.601 299.184C537.07 297.759 537.507 296.325 537.95 294.892C538.402 293.422 538.845 291.95 539.297 290.463C539.399 290.525 539.46 290.54 539.481 290.576C541.065 293.145 542.653 295.711 544.216 298.29C544.322 298.463 544.319 298.761 544.252 298.966C543.351 301.753 542.46 304.546 541.508 307.315C540.893 309.109 540.264 310.906 539.499 312.641C538.309 315.341 536.784 317.857 534.866 320.125C533.124 322.178 531.416 324.262 529.63 326.274C528.001 328.106 526.027 329.406 523.443 329.624C523.334 330.249 523.157 330.852 523.142 331.454C523.03 335.94 523.304 340.429 522.856 344.914C522.69 346.568 522.927 348.261 522.988 349.939C522.991 350.002 523.045 350.062 523.09 350.148C524.636 349.481 526.139 348.774 527.684 348.172C530.853 346.943 533.483 345.021 535.426 342.255C536.818 340.277 538.149 338.253 539.411 336.193C540.803 333.919 542.08 331.576 543.421 329.272C543.689 328.81 544.027 328.39 544.334 327.946C544.467 328.021 544.544 328.045 544.59 328.092C546.005 329.586 547.433 331.067 548.816 332.59C548.967 332.754 548.961 333.207 548.847 333.434C548.445 334.226 547.985 334.989 547.506 335.74C546.539 337.263 545.436 338.712 544.596 340.298C543.388 342.578 542.099 344.818 540.454 346.783C538.475 349.146 536.474 351.519 534.061 353.486C532.893 354.44 531.781 355.451 530.365 356.085C528.284 357.021 526.271 358.112 524.187 359.039C523.397 359.39 523.352 359.849 523.487 360.544C523.647 361.361 523.84 362.189 523.846 363.015C523.889 368.672 523.886 374.329 523.898 379.986C525.738 379.929 527.584 379.932 529.42 379.786C530.426 379.706 531.398 379.244 532.404 379.179C535.212 378.997 537.528 377.495 540.005 376.461C541.794 375.712 543.249 374.394 544.433 372.809C546.897 369.516 549.133 366.085 551.003 362.425C552.534 359.435 554.04 356.431 555.615 353.465C557.579 349.766 558.983 345.839 560.55 341.976C560.763 341.451 560.987 340.93 561.206 340.408C561.246 340.3 561.285 340.193 561.327 340.086C561.339 339.996 561.351 339.907 561.366 339.815C561.453 339.507 561.541 339.204 561.625 338.899C561.685 338.661 561.745 338.422 561.806 338.184C561.926 337.919 562.046 337.654 562.165 337.388C562.27 337.004 562.375 336.617 562.477 336.232C562.52 336.122 562.565 336.015 562.608 335.904C562.616 335.814 562.628 335.728 562.637 335.638C562.679 335.481 562.725 335.326 562.766 335.167C562.92 334.682 563.074 334.196 563.227 333.713C563.243 332.775 563.255 331.836 563.27 330.896C563.357 329.958 563.448 329.019 563.535 328.078C563.571 327.967 563.608 327.857 563.646 327.746C563.658 327.609 563.667 327.472 563.679 327.338C563.725 327.231 563.767 327.12 563.812 327.013C563.869 326.602 563.972 326.187 563.975 325.776C563.996 323.234 563.993 320.688 563.999 318.146C563.996 316.176 564.008 314.206 563.99 312.236C563.972 310.149 563.923 308.06 563.888 305.973C563.885 305.744 563.878 305.503 563.872 305.264Z" fill="#A4D6AF"/>
<path d="M523.901 380.001C523.889 374.344 523.892 368.687 523.85 363.03C523.844 362.204 523.654 361.376 523.491 360.559C523.352 359.864 523.401 359.402 524.19 359.054C526.274 358.127 528.287 357.036 530.368 356.1C531.785 355.463 532.896 354.455 534.065 353.501C536.477 351.531 538.481 349.158 540.457 346.798C542.102 344.833 543.394 342.593 544.599 340.312C545.44 338.727 546.543 337.278 547.509 335.755C547.985 335.004 548.446 334.238 548.85 333.448C548.964 333.222 548.97 332.772 548.82 332.604C547.436 331.082 546.009 329.6 544.593 328.106C544.545 328.057 544.47 328.036 544.337 327.961C544.03 328.405 543.692 328.828 543.424 329.287C542.084 331.591 540.807 333.934 539.414 336.208C538.153 338.271 536.818 340.292 535.43 342.27C533.486 345.036 530.857 346.958 527.688 348.187C526.142 348.786 524.639 349.495 523.093 350.163C523.048 350.077 522.994 350.017 522.991 349.954C522.931 348.279 522.696 346.583 522.859 344.929C523.305 340.444 523.034 335.955 523.145 331.469C523.16 330.864 523.34 330.264 523.446 329.639C526.028 329.421 528.004 328.121 529.633 326.289C531.423 324.277 533.131 322.193 534.869 320.14C536.788 317.875 538.315 315.356 539.502 312.656C540.268 310.921 540.894 309.124 541.511 307.33C542.463 304.558 543.355 301.768 544.256 298.981C544.322 298.775 544.325 298.477 544.219 298.305C542.656 295.723 541.069 293.157 539.484 290.591C539.463 290.555 539.402 290.54 539.3 290.478C538.848 291.965 538.405 293.437 537.953 294.907C537.511 296.34 537.074 297.774 536.605 299.199C535.972 301.118 535.363 303.047 534.655 304.936C533.745 307.356 532.788 309.738 531.38 311.964C530.269 313.723 528.953 315.266 527.549 316.763C527.031 317.315 526.353 317.717 525.747 318.191C525.015 318.766 524.29 319.344 523.416 320.036C523.314 318.957 523.148 318.021 523.145 317.082C523.121 308.31 523.299 299.536 523.04 290.773C522.918 286.684 522.967 282.594 522.828 278.505C522.825 278.409 522.798 278.317 522.768 278.147C520.835 278.037 518.91 277.93 516.846 277.813C516.846 278.162 516.855 278.445 516.846 278.728C516.746 281.73 516.689 284.734 516.533 287.73C516.4 290.251 516.198 292.773 515.936 295.282C515.535 299.13 515.313 302.981 515.346 306.847C515.349 307.13 515.249 307.41 515.183 307.768C514.334 307.002 513.559 306.286 512.764 305.592C510.435 303.562 508.2 301.47 506.305 298.993C504.088 296.096 502.847 292.776 501.585 289.449C500.844 287.497 500.235 285.491 499.561 283.515C499.506 283.357 499.392 283.22 499.241 282.961C498.66 283.67 498.115 284.314 497.591 284.976C496.717 286.075 495.831 287.166 495.015 288.308C494.819 288.579 494.732 289.071 494.837 289.384C495.5 291.333 496.214 293.264 496.946 295.19C497.374 296.314 497.792 297.449 498.338 298.519C499.214 300.227 500.184 301.887 501.13 303.559C501.76 304.671 502.341 305.818 503.085 306.853C504.013 308.143 504.986 309.434 506.125 310.537C507.571 311.935 509.143 313.222 510.773 314.408C511.863 315.204 513.138 315.749 514.34 316.393C514.87 316.677 515.087 317.049 515.071 317.684C515.02 319.684 515.014 321.686 515.065 323.687C515.108 325.407 515.331 327.123 515.325 328.843C515.322 330.488 515.135 332.131 515.011 333.776C514.939 334.753 514.758 335.734 514.77 336.709C514.8 339.045 514.337 341.329 514.102 343.636C514.011 344.512 513.999 345.397 513.945 346.381C513.463 346.19 513.014 346.062 512.616 345.845C510.571 344.73 508.459 343.711 506.525 342.429C505.013 341.424 503.688 340.121 502.35 338.878C501.23 337.835 500.106 336.762 499.178 335.559C498.054 334.094 497.09 332.503 496.142 330.917C495.382 329.648 494.741 328.309 494.06 326.996C493.78 326.456 493.533 325.896 493.186 325.168C492.611 326.643 492.066 327.949 491.593 329.278C491.126 330.599 490.71 331.937 490.322 333.281C490.243 333.549 490.297 333.928 490.436 334.178C491.963 336.95 493.708 339.585 495.699 342.053C496.211 342.687 496.617 343.418 497.199 343.978C498.669 345.397 500.151 346.819 501.745 348.094C503.203 349.263 504.757 350.345 506.381 351.277C507.788 352.088 509.354 352.625 510.839 353.311C511.577 353.65 512.294 354.037 512.996 354.446C513.141 354.529 513.252 354.807 513.243 354.989C513.171 356.315 513.101 357.641 512.963 358.961C512.752 360.937 512.475 362.908 512.252 364.881C512.192 365.417 512.213 365.966 512.213 366.508C512.207 368.437 512.261 370.365 512.183 372.287C512.134 373.485 511.893 374.675 511.74 375.867C511.74 381.425 512.056 387.005 511.673 392.54C510.975 402.584 511.544 412.625 511.327 422.665C511.324 422.763 511.327 422.861 511.333 422.959C511.411 424.464 511.426 424.435 512.9 424.625C515.656 424.981 518.397 425.428 521.156 425.755C522.177 425.878 523.223 425.776 524.341 425.776C524.341 425.621 524.341 425.356 524.341 425.087C524.341 414.783 524.35 404.484 524.332 394.18C524.329 393.33 524.142 392.478 524.034 391.628C524.003 391.384 523.901 391.145 523.901 390.904C523.886 387.265 523.895 383.634 523.901 380.001Z" fill="#193C30"/>
</g>
</g>
<defs>
<clipPath id="clip0_1_223">
<rect width="404" height="389" fill="white" transform="translate(40)"/>
</clipPath>
<clipPath id="clip1_1_223">
<rect width="404" height="389" fill="white" transform="translate(40)"/>
</clipPath>
<clipPath id="clip2_1_223">
<rect width="146" height="214" fill="white" transform="translate(418 215)"/>
</clipPath>
<clipPath id="clip3_1_223">
<rect width="146" height="214" fill="white" transform="translate(418 215)"/>
</clipPath>
</defs>
</svg>
